<?xml version="1.0" encoding="utf-8"?>
<!-- Generator: Adobe Illustrator 26.1.0, SVG Export Plug-In . SVG Version: 6.00 Build 0)  -->
<svg version="1.1" id="レイヤー_1" xmlns="http://www.w3.org/2000/svg" xmlns:xlink="http://www.w3.org/1999/xlink" x="0px"
	 y="0px" viewBox="0 0 648.9 185.3" style="enable-background:new 0 0 648.9 185.3;" xml:space="preserve">
<style type="text/css">
	.st0{fill:#555CE2;}
	.st1{fill:url(#SVGID_1_);}
	.st2{fill:#000333;}
</style>
<g>
	<polygon class="st0" points="100.7,185 61.9,185 122.2,0 162.6,0 	"/>
	<linearGradient id="SVGID_1_" gradientUnits="userSpaceOnUse" x1="18.3052" y1="-5.6911" x2="82.2545" y2="191.1245">
		<stop  offset="3.784797e-04" style="stop-color:#A0A5F1"/>
		<stop  offset="1" style="stop-color:#636CE9"/>
	</linearGradient>
	<polygon class="st1" points="100.1,185.3 61.7,185.3 0,0.3 40.5,0.3 	"/>
</g>
<g>
	<path class="st2" d="M232.4,128.8L252,68h13.8l-28.4,79.2h-10.3L198.4,68h13.8L232.4,128.8z"/>
	<path class="st2" d="M281.9,46.9c0-2.2,0.7-4.1,2-5.6c1.3-1.5,3.3-2.3,6-2.3s4.6,0.8,6,2.3c1.4,1.5,2.1,3.4,2.1,5.6s-0.7,4-2.1,5.5
		c-1.4,1.5-3.4,2.2-6,2.2s-4.6-0.7-6-2.2C282.6,51,281.9,49.1,281.9,46.9z M296.6,147.2H283V68h13.5V147.2z"/>
	<path class="st2" d="M339.6,48.8V68h14.8v10.5h-14.8v49.2c0,3.2,0.7,5.6,2,7.1s3.6,2.4,6.7,2.4c1.6,0,3.7-0.3,6.4-0.9v10.9
		c-3.6,1-7,1.5-10.4,1.5c-6.1,0-10.6-1.8-13.7-5.5s-4.6-8.9-4.6-15.6V78.4h-14.4V68h14.4V48.8H339.6z"/>
	<path class="st2" d="M406.1,148.7c-10.7,0-19.5-3.5-26.2-10.6c-6.7-7.1-10.1-16.5-10.1-28.3v-2.5c0-7.9,1.5-14.9,4.5-21.1
		c3-6.2,7.2-11,12.6-14.5c5.4-3.5,11.2-5.2,17.5-5.2c10.3,0,18.3,3.4,24,10.2c5.7,6.8,8.6,16.5,8.6,29.2v5.6h-53.7
		c0.2,7.8,2.5,14.1,6.8,18.9c4.4,4.8,9.9,7.2,16.7,7.2c4.8,0,8.8-1,12.2-2.9c3.3-2,6.2-4.5,8.7-7.8l8.3,6.4
		C429.4,143.6,419.4,148.7,406.1,148.7z M404.5,77.6c-5.5,0-10.1,2-13.8,6c-3.7,4-6,9.6-6.9,16.7h39.7v-1c-0.4-6.9-2.2-12.2-5.6-16
		C414.6,79.5,410.1,77.6,404.5,77.6z"/>
	<path class="st2" d="M494,80.1c-2.1-0.3-4.3-0.5-6.7-0.5c-8.9,0-14.9,3.8-18.1,11.4v56.2h-13.5V68h13.2l0.2,9.2
		c4.4-7.1,10.7-10.6,18.9-10.6c2.6,0,4.6,0.3,6,1V80.1z"/>
	<path class="st2" d="M535.6,128.8L555.3,68h13.8l-28.4,79.2h-10.3L501.6,68h13.8L535.6,128.8z"/>
	<path class="st2" d="M618,148.7c-10.7,0-19.5-3.5-26.2-10.6c-6.7-7.1-10.1-16.5-10.1-28.3v-2.5c0-7.9,1.5-14.9,4.5-21.1
		c3-6.2,7.2-11,12.6-14.5c5.4-3.5,11.2-5.2,17.5-5.2c10.3,0,18.3,3.4,24,10.2c5.7,6.8,8.6,16.5,8.6,29.2v5.6h-53.7
		c0.2,7.8,2.5,14.1,6.8,18.9c4.4,4.8,9.9,7.2,16.7,7.2c4.8,0,8.8-1,12.2-2.9c3.3-2,6.2-4.5,8.7-7.8l8.3,6.4
		C641.3,143.6,631.3,148.7,618,148.7z M616.3,77.6c-5.5,0-10.1,2-13.8,6c-3.7,4-6,9.6-6.9,16.7h39.7v-1c-0.4-6.9-2.2-12.2-5.6-16
		C626.5,79.5,622,77.6,616.3,77.6z"/>
</g>
</svg>
